# xmcd
#
# Track frame offsets:
#	150
#	12305
#	24862
#	42843
#	63137
#	77180
#	96529
#	106874
#	123311
#	135398
#	152697
#	169735
#	189125
#
# Disc length: 2747 seconds
# Revision: 1
# Processed by: cddbd v1.5.2PL0 Copyright (c) Steve Scherf et al.
# Submitted via: dBpowerAMP V12.0
#
DISCID=950ab90d
DTITLE=Brooks Williams - New Everything
DYEAR=2013
DGENRE=Blues
TTITLE0=One Step
TTITLE1=Mercury Blues
TTITLE2=King of California
TTITLE3=Carry On
TTITLE4=Prosperity
TTITLE5=Deep River Blues
TTITLE6=New Everything
TTITLE7=Son of a Gun
TTITLE8=Playground Games
TTITLE9=Time 4 Love
TTITLE10=Teach Me
TTITLE11=Moon Over Maverick
TTITLE12=Carry On
EXTD=
EXTT0=
EXTT1=
EXTT2=
EXTT3=
EXTT4=
EXTT5=
EXTT6=
EXTT7=
EXTT8=
EXTT9=
EXTT10=
EXTT11=
EXTT12=
PLAYORDER=
